<?xml version="1.0" standalone="no"?>
<svg xmlns:xlink="http://www.w3.org/1999/xlink" xmlns="http://www.w3.org/2000/svg" class="vtree" width="960" height="800"><style>
.vtree-node text { font: 14px sans-serif; }
.vtree-link { fill: none; stroke: #888; stroke-width: 2px; }
.vtree-table { stroke-width: 2px; stroke: steelblue; }
path.vtree-table { fill: white; }
g.vtree-node rect { fill: white; stroke: black; stroke-width: 1px; }
g.vtree-node rect.number-text { fill: #d8f0ed; }
g.vtree-node rect.string-text { fill: #e7f0db; }
g.vtree-node rect.boolean-text { fill: #e1d8f0; }
g.vtree-node rect.null-text { fill: #888; }
</style><g class="vtree-root" transform="translate(236.530245705798,57.937403750753674)scale(0.46932720353329394)"><g class="vtree-node" transform="translate(480,20)"><g class="vtree-node" transform="translate(-8,0)"><path class="vtree-link" d="M8,4C8,43 8,43 8,82"/><g class="vtree-node" transform="translate(8,58)"><g class="vtree-node" transform="translate(-79,0)"><path class="vtree-link" d="M79,24C79,63 79,63 79,102"/><g class="vtree-node" transform="translate(39,78)"><path class="vtree-link" d="M40,24C40,67 114,67 114,110"/><path class="vtree-link" d="M40,24C40,67 -710,67 -710,110"/><g class="vtree-node" transform="translate(-779,78)"><g transform="translate(4,20)"><g transform="translate(0,0)"><rect class="string-text" x="0" y="0" width="94" height="24"/><text x="4" y="20">TypeSpecifier</text></g><g transform="translate(94,0)"><rect class="string-text" x="0" y="0" width="36" height="24"/><text x="4" y="20">Void</text></g></g><g><text x="69" y="16" text-anchor="middle">declaration_specifier</text></g></g><g class="vtree-node" transform="translate(114,78)"><g class="vtree-node" transform="translate(-69,0)"><path class="vtree-link" d="M69,32C69,79 69,79 69,126"/><g class="vtree-node" transform="translate(33,94)"><path class="vtree-link" d="M36,32C36,75 36,75 36,118"/><g class="vtree-node" transform="translate(14,94)"><path class="vtree-link" d="M22,24C22,63 602,63 602,102"/><path class="vtree-link" d="M22,24C22,63 -148,63 -148,102"/><g class="vtree-node" transform="translate(-208,78)"><path class="vtree-link" d="M60,24C60,67 60,67 60,110"/><g class="vtree-node" transform="translate(23,78)"><path class="vtree-link" d="M37,32C37,75 37,75 37,118"/><g class="vtree-node" transform="translate(15,94)"><path class="vtree-link" d="M22,24C22,63 86,63 86,102"/><path class="vtree-link" d="M22,24C22,67 -494,67 -494,110"/><g class="vtree-node" transform="translate(-554,78)"><g transform="translate(20,20)"><g transform="translate(0,0)"><rect class="string-text" x="0" y="0" width="63" height="24"/><text x="4" y="20">Identifier</text></g><g transform="translate(63,0)"><rect class="number-text" x="0" y="0" width="16" height="24"/><text x="4" y="20">0</text></g></g><g><text x="60" y="16" text-anchor="middle">simple_declarator</text></g></g><g class="vtree-node" transform="translate(86,78)"><g class="vtree-node" transform="translate(-41,0)"><path class="vtree-link" d="M41,24C41,63 -305,63 -305,102"/><g class="vtree-node" transform="translate(41,78)"><path class="vtree-link" d="M-346,24C-346,24 170,24 170,24"/><g class="vtree-node" transform="translate(-385,0)"><path class="vtree-link" d="M39,24C39,67 103,67 103,110"/><path class="vtree-link" d="M39,24C39,67 -67,67 -67,110"/><g class="vtree-node" transform="translate(-126,78)"><g transform="translate(0,20)"><g transform="translate(0,0)"><rect class="string-text" x="0" y="0" width="94" height="24"/><text x="4" y="20">TypeSpecifier</text></g><g transform="translate(94,0)"><rect class="string-text" x="0" y="0" width="24" height="24"/><text x="4" y="20">Int</text></g></g><g><text x="59" y="16" text-anchor="middle">specifier</text></g></g><g class="vtree-node" transform="translate(67,78)"><path class="vtree-link" d="M36,32C36,75 36,75 36,118"/><g class="vtree-node" transform="translate(14,94)"><path class="vtree-link" d="M22,24C22,63 87,63 87,102"/><path class="vtree-link" d="M22,24C22,67 -19,67 -19,110"/><g class="vtree-node" transform="translate(-79,78)"><g transform="translate(20,20)"><g transform="translate(0,0)"><rect class="string-text" x="0" y="0" width="63" height="24"/><text x="4" y="20">Identifier</text></g><g transform="translate(63,0)"><rect class="number-text" x="0" y="0" width="16" height="24"/><text x="4" y="20">1</text></g></g><g><text x="60" y="16" text-anchor="middle">simple_declarator</text></g></g><g class="vtree-node" transform="translate(87,78)"><g class="vtree-node" transform="translate(-37,0)"><g transform="translate(33,20)"><rect class="null-text" x="0" y="0" width="8" height="8"/><text x="4" y="4"/></g><g><text x="37" y="16" text-anchor="middle">modifiers[]</text></g></g></g><g transform="translate(14,20)"><g transform="translate(0,0)"><rect class="string-text" x="0" y="0" width="8" height="8"/><text x="4" y="4"> </text></g><g transform="translate(8,0)"><rect class="string-text" x="0" y="0" width="8" height="8"/><text x="4" y="4"> </text></g></g><g><text x="22" y="16" text-anchor="middle">direct</text></g></g><g transform="translate(2,20)"><g transform="translate(0,0)"><rect class="string-text" x="0" y="0" width="52" height="24"/><text x="4" y="20">pointer</text></g><g transform="translate(52,0)"><rect class="number-text" x="0" y="0" width="16" height="24"/><text x="4" y="20">0</text></g></g><g><text x="36" y="16" text-anchor="middle">declarator</text></g></g><g transform="translate(31,20)"><g transform="translate(0,0)"><rect class="string-text" x="0" y="0" width="8" height="8"/><text x="4" y="4"> </text></g><g transform="translate(8,0)"><rect class="string-text" x="0" y="0" width="8" height="8"/><text x="4" y="4"> </text></g></g><g><text x="39" y="16" text-anchor="middle">Function[0]</text></g></g><g class="vtree-node" transform="translate(131,0)"><path class="vtree-link" d="M39,24C39,67 109,67 109,110"/><path class="vtree-link" d="M39,24C39,67 -237,67 -237,110"/><g class="vtree-node" transform="translate(-302,78)"><g transform="translate(0,20)"><g transform="translate(0,0)"><rect class="string-text" x="0" y="0" width="94" height="24"/><text x="4" y="20">TypeSpecifier</text></g><g transform="translate(94,0)"><rect class="string-text" x="0" y="0" width="36" height="24"/><text x="4" y="20">Void</text></g></g><g><text x="65" y="16" text-anchor="middle">specifier</text></g></g><g class="vtree-node" transform="translate(73,78)"><path class="vtree-link" d="M36,32C36,75 36,75 36,118"/><g class="vtree-node" transform="translate(14,94)"><path class="vtree-link" d="M22,24C22,63 128,63 128,102"/><path class="vtree-link" d="M22,24C22,63 -148,63 -148,102"/><g class="vtree-node" transform="translate(-208,78)"><path class="vtree-link" d="M60,24C60,67 60,67 60,110"/><g class="vtree-node" transform="translate(23,78)"><path class="vtree-link" d="M37,32C37,75 37,75 37,118"/><g class="vtree-node" transform="translate(15,94)"><path class="vtree-link" d="M22,24C22,63 87,63 87,102"/><path class="vtree-link" d="M22,24C22,67 -19,67 -19,110"/><g class="vtree-node" transform="translate(-79,78)"><g transform="translate(20,20)"><g transform="translate(0,0)"><rect class="string-text" x="0" y="0" width="63" height="24"/><text x="4" y="20">Identifier</text></g><g transform="translate(63,0)"><rect class="number-text" x="0" y="0" width="16" height="24"/><text x="4" y="20">2</text></g></g><g><text x="60" y="16" text-anchor="middle">simple_declarator</text></g></g><g class="vtree-node" transform="translate(87,78)"><g class="vtree-node" transform="translate(-37,0)"><g transform="translate(33,20)"><rect class="null-text" x="0" y="0" width="8" height="8"/><text x="4" y="4"/></g><g><text x="37" y="16" text-anchor="middle">modifiers[]</text></g></g></g><g transform="translate(14,20)"><g transform="translate(0,0)"><rect class="string-text" x="0" y="0" width="8" height="8"/><text x="4" y="4"> </text></g><g transform="translate(8,0)"><rect class="string-text" x="0" y="0" width="8" height="8"/><text x="4" y="4"> </text></g></g><g><text x="22" y="16" text-anchor="middle">direct</text></g></g><g transform="translate(3,20)"><g transform="translate(0,0)"><rect class="string-text" x="0" y="0" width="52" height="24"/><text x="4" y="20">pointer</text></g><g transform="translate(52,0)"><rect class="number-text" x="0" y="0" width="16" height="24"/><text x="4" y="20">1</text></g></g><g><text x="37" y="16" text-anchor="middle">Declarator</text></g></g><g transform="translate(52,20)"><g transform="translate(0,0)"><rect class="string-text" x="0" y="0" width="8" height="8"/><text x="4" y="4"> </text></g><g transform="translate(8,0)"><rect class="string-text" x="0" y="0" width="8" height="8"/><text x="4" y="4"> </text></g></g><g><text x="60" y="16" text-anchor="middle">simple_declarator</text></g></g><g class="vtree-node" transform="translate(128,78)"><g class="vtree-node" transform="translate(-41,0)"><path class="vtree-link" d="M41,24C41,63 41,63 41,102"/><g class="vtree-node" transform="translate(41,78)"><g class="vtree-node" transform="translate(-39,0)"><path class="vtree-link" d="M39,24C39,67 103,67 103,110"/><path class="vtree-link" d="M39,24C39,67 -67,67 -67,110"/><g class="vtree-node" transform="translate(-126,78)"><g transform="translate(0,20)"><g transform="translate(0,0)"><rect class="string-text" x="0" y="0" width="94" height="24"/><text x="4" y="20">TypeSpecifier</text></g><g transform="translate(94,0)"><rect class="string-text" x="0" y="0" width="24" height="24"/><text x="4" y="20">Int</text></g></g><g><text x="59" y="16" text-anchor="middle">specifier</text></g></g><g class="vtree-node" transform="translate(67,78)"><path class="vtree-link" d="M36,32C36,75 36,75 36,118"/><g class="vtree-node" transform="translate(14,94)"><path class="vtree-link" d="M22,24C22,63 87,63 87,102"/><path class="vtree-link" d="M22,24C22,67 -19,67 -19,110"/><g class="vtree-node" transform="translate(-79,78)"><g transform="translate(20,20)"><g transform="translate(0,0)"><rect class="string-text" x="0" y="0" width="63" height="24"/><text x="4" y="20">Identifier</text></g><g transform="translate(63,0)"><rect class="number-text" x="0" y="0" width="16" height="24"/><text x="4" y="20">3</text></g></g><g><text x="60" y="16" text-anchor="middle">simple_declarator</text></g></g><g class="vtree-node" transform="translate(87,78)"><g class="vtree-node" transform="translate(-37,0)"><g transform="translate(33,20)"><rect class="null-text" x="0" y="0" width="8" height="8"/><text x="4" y="4"/></g><g><text x="37" y="16" text-anchor="middle">modifiers[]</text></g></g></g><g transform="translate(14,20)"><g transform="translate(0,0)"><rect class="string-text" x="0" y="0" width="8" height="8"/><text x="4" y="4"> </text></g><g transform="translate(8,0)"><rect class="string-text" x="0" y="0" width="8" height="8"/><text x="4" y="4"> </text></g></g><g><text x="22" y="16" text-anchor="middle">direct</text></g></g><g transform="translate(2,20)"><g transform="translate(0,0)"><rect class="string-text" x="0" y="0" width="52" height="24"/><text x="4" y="20">pointer</text></g><g transform="translate(52,0)"><rect class="number-text" x="0" y="0" width="16" height="24"/><text x="4" y="20">0</text></g></g><g><text x="36" y="16" text-anchor="middle">declarator</text></g></g><g transform="translate(31,20)"><g transform="translate(0,0)"><rect class="string-text" x="0" y="0" width="8" height="8"/><text x="4" y="4"> </text></g><g transform="translate(8,0)"><rect class="string-text" x="0" y="0" width="8" height="8"/><text x="4" y="4"> </text></g></g><g><text x="39" y="16" text-anchor="middle">Function[0]</text></g></g></g><g transform="translate(33,20)"><g transform="translate(0,0)"><rect class="string-text" x="0" y="0" width="8" height="8"/><text x="4" y="4"> </text></g><g transform="translate(8,0)"><rect class="string-text" x="0" y="0" width="8" height="8"/><text x="4" y="4"> </text></g></g><g><text x="41" y="16" text-anchor="middle">modifiers[0]</text></g></g></g><g transform="translate(14,20)"><g transform="translate(0,0)"><rect class="string-text" x="0" y="0" width="8" height="8"/><text x="4" y="4"> </text></g><g transform="translate(8,0)"><rect class="string-text" x="0" y="0" width="8" height="8"/><text x="4" y="4"> </text></g></g><g><text x="22" y="16" text-anchor="middle">direct</text></g></g><g transform="translate(2,20)"><g transform="translate(0,0)"><rect class="string-text" x="0" y="0" width="52" height="24"/><text x="4" y="20">pointer</text></g><g transform="translate(52,0)"><rect class="number-text" x="0" y="0" width="16" height="24"/><text x="4" y="20">0</text></g></g><g><text x="36" y="16" text-anchor="middle">declarator</text></g></g><g transform="translate(31,20)"><g transform="translate(0,0)"><rect class="string-text" x="0" y="0" width="8" height="8"/><text x="4" y="4"> </text></g><g transform="translate(8,0)"><rect class="string-text" x="0" y="0" width="8" height="8"/><text x="4" y="4"> </text></g></g><g><text x="39" y="16" text-anchor="middle">Function[1]</text></g></g></g><g transform="translate(33,20)"><g transform="translate(0,0)"><rect class="string-text" x="0" y="0" width="8" height="8"/><text x="4" y="4"> </text></g><g transform="translate(8,0)"><rect class="string-text" x="0" y="0" width="8" height="8"/><text x="4" y="4"> </text></g></g><g><text x="41" y="16" text-anchor="middle">modifiers[0]</text></g></g></g><g transform="translate(14,20)"><g transform="translate(0,0)"><rect class="string-text" x="0" y="0" width="8" height="8"/><text x="4" y="4"> </text></g><g transform="translate(8,0)"><rect class="string-text" x="0" y="0" width="8" height="8"/><text x="4" y="4"> </text></g></g><g><text x="22" y="16" text-anchor="middle">direct</text></g></g><g transform="translate(3,20)"><g transform="translate(0,0)"><rect class="string-text" x="0" y="0" width="52" height="24"/><text x="4" y="20">pointer</text></g><g transform="translate(52,0)"><rect class="number-text" x="0" y="0" width="16" height="24"/><text x="4" y="20">1</text></g></g><g><text x="37" y="16" text-anchor="middle">Declarator</text></g></g><g transform="translate(52,20)"><g transform="translate(0,0)"><rect class="string-text" x="0" y="0" width="8" height="8"/><text x="4" y="4"> </text></g><g transform="translate(8,0)"><rect class="string-text" x="0" y="0" width="8" height="8"/><text x="4" y="4"> </text></g></g><g><text x="60" y="16" text-anchor="middle">simple_declarator</text></g></g><g class="vtree-node" transform="translate(602,78)"><g class="vtree-node" transform="translate(-41,0)"><path class="vtree-link" d="M41,24C41,63 41,63 41,102"/><g class="vtree-node" transform="translate(41,78)"><g class="vtree-node" transform="translate(-39,0)"><path class="vtree-link" d="M39,24C39,67 103,67 103,110"/><path class="vtree-link" d="M39,24C39,67 -67,67 -67,110"/><g class="vtree-node" transform="translate(-126,78)"><g transform="translate(0,20)"><g transform="translate(0,0)"><rect class="string-text" x="0" y="0" width="94" height="24"/><text x="4" y="20">TypeSpecifier</text></g><g transform="translate(94,0)"><rect class="string-text" x="0" y="0" width="24" height="24"/><text x="4" y="20">Int</text></g></g><g><text x="59" y="16" text-anchor="middle">specifier</text></g></g><g class="vtree-node" transform="translate(67,78)"><path class="vtree-link" d="M36,32C36,75 36,75 36,118"/><g class="vtree-node" transform="translate(14,94)"><path class="vtree-link" d="M22,24C22,63 87,63 87,102"/><path class="vtree-link" d="M22,24C22,67 -19,67 -19,110"/><g class="vtree-node" transform="translate(-79,78)"><g transform="translate(20,20)"><g transform="translate(0,0)"><rect class="string-text" x="0" y="0" width="63" height="24"/><text x="4" y="20">Identifier</text></g><g transform="translate(63,0)"><rect class="number-text" x="0" y="0" width="16" height="24"/><text x="4" y="20">4</text></g></g><g><text x="60" y="16" text-anchor="middle">simple_declarator</text></g></g><g class="vtree-node" transform="translate(87,78)"><g class="vtree-node" transform="translate(-37,0)"><g transform="translate(33,20)"><rect class="null-text" x="0" y="0" width="8" height="8"/><text x="4" y="4"/></g><g><text x="37" y="16" text-anchor="middle">modifiers[]</text></g></g></g><g transform="translate(14,20)"><g transform="translate(0,0)"><rect class="string-text" x="0" y="0" width="8" height="8"/><text x="4" y="4"> </text></g><g transform="translate(8,0)"><rect class="string-text" x="0" y="0" width="8" height="8"/><text x="4" y="4"> </text></g></g><g><text x="22" y="16" text-anchor="middle">direct</text></g></g><g transform="translate(2,20)"><g transform="translate(0,0)"><rect class="string-text" x="0" y="0" width="52" height="24"/><text x="4" y="20">pointer</text></g><g transform="translate(52,0)"><rect class="number-text" x="0" y="0" width="16" height="24"/><text x="4" y="20">0</text></g></g><g><text x="36" y="16" text-anchor="middle">declarator</text></g></g><g transform="translate(31,20)"><g transform="translate(0,0)"><rect class="string-text" x="0" y="0" width="8" height="8"/><text x="4" y="4"> </text></g><g transform="translate(8,0)"><rect class="string-text" x="0" y="0" width="8" height="8"/><text x="4" y="4"> </text></g></g><g><text x="39" y="16" text-anchor="middle">Function[0]</text></g></g></g><g transform="translate(33,20)"><g transform="translate(0,0)"><rect class="string-text" x="0" y="0" width="8" height="8"/><text x="4" y="4"> </text></g><g transform="translate(8,0)"><rect class="string-text" x="0" y="0" width="8" height="8"/><text x="4" y="4"> </text></g></g><g><text x="41" y="16" text-anchor="middle">modifiers[0]</text></g></g></g><g transform="translate(14,20)"><g transform="translate(0,0)"><rect class="string-text" x="0" y="0" width="8" height="8"/><text x="4" y="4"> </text></g><g transform="translate(8,0)"><rect class="string-text" x="0" y="0" width="8" height="8"/><text x="4" y="4"> </text></g></g><g><text x="22" y="16" text-anchor="middle">direct</text></g></g><g transform="translate(2,20)"><g transform="translate(0,0)"><rect class="string-text" x="0" y="0" width="52" height="24"/><text x="4" y="20">pointer</text></g><g transform="translate(52,0)"><rect class="number-text" x="0" y="0" width="16" height="24"/><text x="4" y="20">0</text></g></g><g><text x="36" y="16" text-anchor="middle">declarator</text></g></g><g transform="translate(33,20)"><g transform="translate(0,0)"><rect class="string-text" x="0" y="0" width="63" height="24"/><text x="4" y="20">initializer</text></g><g transform="translate(63,0)"><rect class="null-text" x="0" y="0" width="8" height="24"/><text x="4" y="4"/></g></g><g><text x="69" y="16" text-anchor="middle">init_declarator_list[0]</text></g></g></g><g transform="translate(32,20)"><g transform="translate(0,0)"><rect class="string-text" x="0" y="0" width="8" height="8"/><text x="4" y="4"> </text></g><g transform="translate(8,0)"><rect class="string-text" x="0" y="0" width="8" height="8"/><text x="4" y="4"> </text></g></g><g><text x="40" y="16" text-anchor="middle">Declaration</text></g></g><g transform="translate(71,20)"><g transform="translate(0,0)"><rect class="string-text" x="0" y="0" width="8" height="8"/><text x="4" y="4"> </text></g><g transform="translate(8,0)"><rect class="string-text" x="0" y="0" width="8" height="8"/><text x="4" y="4"> </text></g></g><g><text x="79" y="16" text-anchor="middle">external_declarations[0]</text></g></g></g><g transform="translate(0,0)"><rect class="string-text" x="0" y="0" width="8" height="8"/><text x="4" y="4"> </text></g><g transform="translate(8,0)"><rect class="string-text" x="0" y="0" width="8" height="8"/><text x="4" y="4"> </text></g></g></g></g></svg>