<?xml version="1.0" standalone="no"?>
<svg xmlns:xlink="http://www.w3.org/1999/xlink" xmlns="http://www.w3.org/2000/svg" class="vtree" width="960" height="800"><style>
.vtree-node text { font: 14px sans-serif; }
.vtree-link { fill: none; stroke: #888; stroke-width: 2px; }
.vtree-table { stroke-width: 2px; stroke: steelblue; }
path.vtree-table { fill: white; }
g.vtree-node rect { fill: white; stroke: black; stroke-width: 1px; }
g.vtree-node rect.number-text { fill: #d8f0ed; }
g.vtree-node rect.string-text { fill: #e7f0db; }
g.vtree-node rect.boolean-text { fill: #e1d8f0; }
g.vtree-node rect.null-text { fill: #888; }
</style><g class="vtree-root" transform="translate(377.5378913081095,-31.880785169987263)scale(0.42959938900931566)"><g class="vtree-node" transform="translate(480,20)"><g class="vtree-node" transform="translate(-8,0)"><path class="vtree-link" d="M8,4C8,43 8,43 8,82"/><g class="vtree-node" transform="translate(8,58)"><g class="vtree-node" transform="translate(-79,0)"><path class="vtree-link" d="M79,24C79,63 79,63 79,102"/><g class="vtree-node" transform="translate(12,78)"><path class="vtree-link" d="M67,24C67,63 545,63 545,102"/><path class="vtree-link" d="M67,24C67,67 -38,67 -38,110"/><path class="vtree-link" d="M67,24C67,67 -516,67 -516,110"/><g class="vtree-node" transform="translate(-585,78)"><g transform="translate(10,20)"><g transform="translate(0,0)"><rect class="string-text" x="0" y="0" width="94" height="24"/><text x="4" y="20">TypeSpecifier</text></g><g transform="translate(94,0)"><rect class="string-text" x="0" y="0" width="24" height="24"/><text x="4" y="20">Int</text></g></g><g><text x="69" y="16" text-anchor="middle">declaration_specifier</text></g></g><g class="vtree-node" transform="translate(-74,78)"><path class="vtree-link" d="M36,32C36,75 36,75 36,118"/><g class="vtree-node" transform="translate(14,94)"><path class="vtree-link" d="M22,24C22,63 86,63 86,102"/><path class="vtree-link" d="M22,24C22,67 -318,67 -318,110"/><g class="vtree-node" transform="translate(-378,78)"><g transform="translate(20,20)"><g transform="translate(0,0)"><rect class="string-text" x="0" y="0" width="63" height="24"/><text x="4" y="20">Identifier</text></g><g transform="translate(63,0)"><rect class="number-text" x="0" y="0" width="16" height="24"/><text x="4" y="20">0</text></g></g><g><text x="60" y="16" text-anchor="middle">simple_declarator</text></g></g><g class="vtree-node" transform="translate(86,78)"><g class="vtree-node" transform="translate(-41,0)"><path class="vtree-link" d="M41,24C41,63 -129,63 -129,102"/><g class="vtree-node" transform="translate(41,78)"><path class="vtree-link" d="M-170,24C-170,24 170,24 170,24"/><g class="vtree-node" transform="translate(-209,0)"><path class="vtree-link" d="M39,24C39,67 103,67 103,110"/><path class="vtree-link" d="M39,24C39,67 -67,67 -67,110"/><g class="vtree-node" transform="translate(-126,78)"><g transform="translate(0,20)"><g transform="translate(0,0)"><rect class="string-text" x="0" y="0" width="94" height="24"/><text x="4" y="20">TypeSpecifier</text></g><g transform="translate(94,0)"><rect class="string-text" x="0" y="0" width="24" height="24"/><text x="4" y="20">Int</text></g></g><g><text x="59" y="16" text-anchor="middle">specifier</text></g></g><g class="vtree-node" transform="translate(67,78)"><path class="vtree-link" d="M36,32C36,75 36,75 36,118"/><g class="vtree-node" transform="translate(14,94)"><path class="vtree-link" d="M22,24C22,63 87,63 87,102"/><path class="vtree-link" d="M22,24C22,67 -19,67 -19,110"/><g class="vtree-node" transform="translate(-79,78)"><g transform="translate(20,20)"><g transform="translate(0,0)"><rect class="string-text" x="0" y="0" width="63" height="24"/><text x="4" y="20">Identifier</text></g><g transform="translate(63,0)"><rect class="number-text" x="0" y="0" width="16" height="24"/><text x="4" y="20">1</text></g></g><g><text x="60" y="16" text-anchor="middle">simple_declarator</text></g></g><g class="vtree-node" transform="translate(87,78)"><g class="vtree-node" transform="translate(-37,0)"><g transform="translate(33,20)"><rect class="null-text" x="0" y="0" width="8" height="8"/><text x="4" y="4"/></g><g><text x="37" y="16" text-anchor="middle">modifiers[]</text></g></g></g><g transform="translate(14,20)"><g transform="translate(0,0)"><rect class="string-text" x="0" y="0" width="8" height="8"/><text x="4" y="4"> </text></g><g transform="translate(8,0)"><rect class="string-text" x="0" y="0" width="8" height="8"/><text x="4" y="4"> </text></g></g><g><text x="22" y="16" text-anchor="middle">direct</text></g></g><g transform="translate(2,20)"><g transform="translate(0,0)"><rect class="string-text" x="0" y="0" width="52" height="24"/><text x="4" y="20">pointer</text></g><g transform="translate(52,0)"><rect class="number-text" x="0" y="0" width="16" height="24"/><text x="4" y="20">0</text></g></g><g><text x="36" y="16" text-anchor="middle">declarator</text></g></g><g transform="translate(31,20)"><g transform="translate(0,0)"><rect class="string-text" x="0" y="0" width="8" height="8"/><text x="4" y="4"> </text></g><g transform="translate(8,0)"><rect class="string-text" x="0" y="0" width="8" height="8"/><text x="4" y="4"> </text></g></g><g><text x="39" y="16" text-anchor="middle">Function[0]</text></g></g><g class="vtree-node" transform="translate(131,0)"><path class="vtree-link" d="M39,24C39,67 103,67 103,110"/><path class="vtree-link" d="M39,24C39,67 -67,67 -67,110"/><g class="vtree-node" transform="translate(-126,78)"><g transform="translate(0,20)"><g transform="translate(0,0)"><rect class="string-text" x="0" y="0" width="94" height="24"/><text x="4" y="20">TypeSpecifier</text></g><g transform="translate(94,0)"><rect class="string-text" x="0" y="0" width="24" height="24"/><text x="4" y="20">Int</text></g></g><g><text x="59" y="16" text-anchor="middle">specifier</text></g></g><g class="vtree-node" transform="translate(67,78)"><path class="vtree-link" d="M36,32C36,75 36,75 36,118"/><g class="vtree-node" transform="translate(14,94)"><path class="vtree-link" d="M22,24C22,63 87,63 87,102"/><path class="vtree-link" d="M22,24C22,67 -19,67 -19,110"/><g class="vtree-node" transform="translate(-79,78)"><g transform="translate(20,20)"><g transform="translate(0,0)"><rect class="string-text" x="0" y="0" width="63" height="24"/><text x="4" y="20">Identifier</text></g><g transform="translate(63,0)"><rect class="number-text" x="0" y="0" width="16" height="24"/><text x="4" y="20">2</text></g></g><g><text x="60" y="16" text-anchor="middle">simple_declarator</text></g></g><g class="vtree-node" transform="translate(87,78)"><g class="vtree-node" transform="translate(-37,0)"><g transform="translate(33,20)"><rect class="null-text" x="0" y="0" width="8" height="8"/><text x="4" y="4"/></g><g><text x="37" y="16" text-anchor="middle">modifiers[]</text></g></g></g><g transform="translate(14,20)"><g transform="translate(0,0)"><rect class="string-text" x="0" y="0" width="8" height="8"/><text x="4" y="4"> </text></g><g transform="translate(8,0)"><rect class="string-text" x="0" y="0" width="8" height="8"/><text x="4" y="4"> </text></g></g><g><text x="22" y="16" text-anchor="middle">direct</text></g></g><g transform="translate(2,20)"><g transform="translate(0,0)"><rect class="string-text" x="0" y="0" width="52" height="24"/><text x="4" y="20">pointer</text></g><g transform="translate(52,0)"><rect class="number-text" x="0" y="0" width="16" height="24"/><text x="4" y="20">0</text></g></g><g><text x="36" y="16" text-anchor="middle">declarator</text></g></g><g transform="translate(31,20)"><g transform="translate(0,0)"><rect class="string-text" x="0" y="0" width="8" height="8"/><text x="4" y="4"> </text></g><g transform="translate(8,0)"><rect class="string-text" x="0" y="0" width="8" height="8"/><text x="4" y="4"> </text></g></g><g><text x="39" y="16" text-anchor="middle">Function[1]</text></g></g></g><g transform="translate(33,20)"><g transform="translate(0,0)"><rect class="string-text" x="0" y="0" width="8" height="8"/><text x="4" y="4"> </text></g><g transform="translate(8,0)"><rect class="string-text" x="0" y="0" width="8" height="8"/><text x="4" y="4"> </text></g></g><g><text x="41" y="16" text-anchor="middle">modifiers[0]</text></g></g></g><g transform="translate(14,20)"><g transform="translate(0,0)"><rect class="string-text" x="0" y="0" width="8" height="8"/><text x="4" y="4"> </text></g><g transform="translate(8,0)"><rect class="string-text" x="0" y="0" width="8" height="8"/><text x="4" y="4"> </text></g></g><g><text x="22" y="16" text-anchor="middle">direct</text></g></g><g transform="translate(2,20)"><g transform="translate(0,0)"><rect class="string-text" x="0" y="0" width="52" height="24"/><text x="4" y="20">pointer</text></g><g transform="translate(52,0)"><rect class="number-text" x="0" y="0" width="16" height="24"/><text x="4" y="20">0</text></g></g><g><text x="36" y="16" text-anchor="middle">declarator</text></g></g><g class="vtree-node" transform="translate(545,78)"><g class="vtree-node" transform="translate(-80,0)"><path class="vtree-link" d="M80,24C80,63 80,63 80,102"/><g class="vtree-node" transform="translate(43,78)"><path class="vtree-link" d="M37,24C37,67 37,67 37,110"/><g class="vtree-node" transform="translate(-4,78)"><path class="vtree-link" d="M41,32C41,75 85,75 85,118"/><path class="vtree-link" d="M41,32C41,75 -93,75 -93,118"/><g class="vtree-node" transform="translate(-126,94)"><path class="vtree-link" d="M33,24C33,67 33,67 33,110"/><g class="vtree-node" transform="translate(-7,78)"><g transform="translate(0,20)"><g transform="translate(0,0)"><rect class="string-text" x="0" y="0" width="63" height="24"/><text x="4" y="20">Identifier</text></g><g transform="translate(63,0)"><rect class="number-text" x="0" y="0" width="16" height="24"/><text x="4" y="20">1</text></g></g><g><text x="40" y="16" text-anchor="middle">Atom</text></g></g><g transform="translate(25,20)"><g transform="translate(0,0)"><rect class="string-text" x="0" y="0" width="8" height="8"/><text x="4" y="4"> </text></g><g transform="translate(8,0)"><rect class="string-text" x="0" y="0" width="8" height="8"/><text x="4" y="4"> </text></g></g><g><text x="33" y="16" text-anchor="middle">condition</text></g></g><g class="vtree-node" transform="translate(44,94)"><path class="vtree-link" d="M41,24C41,63 41,63 41,102"/><g class="vtree-node" transform="translate(8,78)"><path class="vtree-link" d="M33,24C33,63 123,63 123,102"/><path class="vtree-link" d="M33,24C33,63 34,63 34,102"/><path class="vtree-link" d="M33,24C33,63 -56,63 -56,102"/><g class="vtree-node" transform="translate(-89,78)"><path class="vtree-link" d="M33,24C33,67 33,67 33,110"/><g class="vtree-node" transform="translate(-7,78)"><g transform="translate(0,20)"><g transform="translate(0,0)"><rect class="string-text" x="0" y="0" width="63" height="24"/><text x="4" y="20">Identifier</text></g><g transform="translate(63,0)"><rect class="number-text" x="0" y="0" width="16" height="24"/><text x="4" y="20">2</text></g></g><g><text x="40" y="16" text-anchor="middle">Atom</text></g></g><g transform="translate(25,20)"><g transform="translate(0,0)"><rect class="string-text" x="0" y="0" width="8" height="8"/><text x="4" y="4"> </text></g><g transform="translate(8,0)"><rect class="string-text" x="0" y="0" width="8" height="8"/><text x="4" y="4"> </text></g></g><g><text x="33" y="16" text-anchor="middle">condition</text></g></g><g class="vtree-node" transform="translate(-7,78)"><path class="vtree-link" d="M41,24C41,63 41,63 41,102"/><g class="vtree-node" transform="translate(2,78)"><path class="vtree-link" d="M39,24C39,67 39,67 39,110"/><g class="vtree-node" transform="translate(5,78)"><g transform="translate(0,20)"><g transform="translate(0,0)"><rect class="string-text" x="0" y="0" width="52" height="24"/><text x="4" y="20">Integer</text></g><g transform="translate(52,0)"><rect class="number-text" x="0" y="0" width="16" height="24"/><text x="4" y="20">1</text></g></g><g><text x="34" y="16" text-anchor="middle">Atom</text></g></g><g transform="translate(31,20)"><g transform="translate(0,0)"><rect class="string-text" x="0" y="0" width="8" height="8"/><text x="4" y="4"> </text></g><g transform="translate(8,0)"><rect class="string-text" x="0" y="0" width="8" height="8"/><text x="4" y="4"> </text></g></g><g><text x="39" y="16" text-anchor="middle">Expression</text></g></g><g transform="translate(33,20)"><g transform="translate(0,0)"><rect class="string-text" x="0" y="0" width="8" height="8"/><text x="4" y="4"> </text></g><g transform="translate(8,0)"><rect class="string-text" x="0" y="0" width="8" height="8"/><text x="4" y="4"> </text></g></g><g><text x="41" y="16" text-anchor="middle">consequent</text></g></g><g class="vtree-node" transform="translate(86,78)"><path class="vtree-link" d="M37,24C37,63 37,63 37,102"/><g class="vtree-node" transform="translate(-2,78)"><path class="vtree-link" d="M39,24C39,67 39,67 39,110"/><g class="vtree-node" transform="translate(5,78)"><g transform="translate(0,20)"><g transform="translate(0,0)"><rect class="string-text" x="0" y="0" width="52" height="24"/><text x="4" y="20">Integer</text></g><g transform="translate(52,0)"><rect class="number-text" x="0" y="0" width="16" height="24"/><text x="4" y="20">1</text></g></g><g><text x="34" y="16" text-anchor="middle">Atom</text></g></g><g transform="translate(31,20)"><g transform="translate(0,0)"><rect class="string-text" x="0" y="0" width="8" height="8"/><text x="4" y="4"> </text></g><g transform="translate(8,0)"><rect class="string-text" x="0" y="0" width="8" height="8"/><text x="4" y="4"> </text></g></g><g><text x="39" y="16" text-anchor="middle">Expression</text></g></g><g transform="translate(29,20)"><g transform="translate(0,0)"><rect class="string-text" x="0" y="0" width="8" height="8"/><text x="4" y="4"> </text></g><g transform="translate(8,0)"><rect class="string-text" x="0" y="0" width="8" height="8"/><text x="4" y="4"> </text></g></g><g><text x="37" y="16" text-anchor="middle">alternative</text></g></g><g transform="translate(25,20)"><g transform="translate(0,0)"><rect class="string-text" x="0" y="0" width="8" height="8"/><text x="4" y="4"> </text></g><g transform="translate(8,0)"><rect class="string-text" x="0" y="0" width="8" height="8"/><text x="4" y="4"> </text></g></g><g><text x="33" y="16" text-anchor="middle">Selection</text></g></g><g transform="translate(33,20)"><g transform="translate(0,0)"><rect class="string-text" x="0" y="0" width="8" height="8"/><text x="4" y="4"> </text></g><g transform="translate(8,0)"><rect class="string-text" x="0" y="0" width="8" height="8"/><text x="4" y="4"> </text></g></g><g><text x="41" y="16" text-anchor="middle">consequent</text></g></g><g transform="translate(0,20)"><g transform="translate(0,0)"><rect class="string-text" x="0" y="0" width="73" height="24"/><text x="4" y="20">alternative</text></g><g transform="translate(73,0)"><rect class="null-text" x="0" y="0" width="8" height="24"/><text x="4" y="4"/></g></g><g><text x="41" y="16" text-anchor="middle">Selection</text></g></g><g transform="translate(29,20)"><g transform="translate(0,0)"><rect class="string-text" x="0" y="0" width="8" height="8"/><text x="4" y="4"> </text></g><g transform="translate(8,0)"><rect class="string-text" x="0" y="0" width="8" height="8"/><text x="4" y="4"> </text></g></g><g><text x="37" y="16" text-anchor="middle">Statement</text></g></g><g transform="translate(72,20)"><g transform="translate(0,0)"><rect class="string-text" x="0" y="0" width="8" height="8"/><text x="4" y="4"> </text></g><g transform="translate(8,0)"><rect class="string-text" x="0" y="0" width="8" height="8"/><text x="4" y="4"> </text></g></g><g><text x="80" y="16" text-anchor="middle">compound_statement[0]</text></g></g></g><g transform="translate(59,20)"><g transform="translate(0,0)"><rect class="string-text" x="0" y="0" width="8" height="8"/><text x="4" y="4"> </text></g><g transform="translate(8,0)"><rect class="string-text" x="0" y="0" width="8" height="8"/><text x="4" y="4"> </text></g></g><g><text x="67" y="16" text-anchor="middle">FunctionDeclaration</text></g></g><g transform="translate(71,20)"><g transform="translate(0,0)"><rect class="string-text" x="0" y="0" width="8" height="8"/><text x="4" y="4"> </text></g><g transform="translate(8,0)"><rect class="string-text" x="0" y="0" width="8" height="8"/><text x="4" y="4"> </text></g></g><g><text x="79" y="16" text-anchor="middle">external_declarations[0]</text></g></g></g><g transform="translate(0,0)"><rect class="string-text" x="0" y="0" width="8" height="8"/><text x="4" y="4"> </text></g><g transform="translate(8,0)"><rect class="string-text" x="0" y="0" width="8" height="8"/><text x="4" y="4"> </text></g></g></g></g></svg>